<svg width="126" height="126" viewBox="0 0 126 126" fill="none" xmlns="http://www.w3.org/2000/svg">
<mask id="path-1-inside-1_4013_8791" fill="white">
<path fill-rule="evenodd" clip-rule="evenodd" d="M87.3467 0.555598C85.8612 0.974187 83.9724 1.75745 83.1487 2.29663C80.651 3.93157 32.2022 43.7904 29.2122 46.6706C24.0791 51.6149 21.099 60.3478 22.2971 66.9328L22.8259 69.8386L13.6551 78.6005C6.14554 85.7751 4.16208 88.0165 2.70859 90.9698C-0.91818 98.3392 -0.902508 106.028 2.75386 112.879C10.7783 127.916 30.2152 130.528 41.7213 118.115C43.5097 116.186 45.1408 114.079 45.3457 113.433C45.8728 111.775 46.3784 111.965 47.6339 114.294C49.0688 116.954 54.0852 121.663 57.1484 123.224C67.8191 128.661 80.7061 125.766 87.4755 116.41C90.3071 112.497 118.78 63.5754 118.78 62.6234C118.78 61.5421 117.172 60.5386 116.05 60.9195C115.454 61.1218 110.279 69.4438 103.978 80.3335C97.9118 90.8162 92.8605 99.308 92.752 99.2042C92.644 99.1004 92.3137 97.9409 92.0183 96.6272C90.5561 90.1268 85.1693 83.3488 79.1098 80.3833C75.3443 78.5408 69.5837 77.2004 67.3013 77.6364C66.1294 77.8602 66.0452 77.7697 66.6773 76.9668C72.9708 68.9741 103.527 32.9319 104.455 32.4061C106.482 31.2576 110.65 31.5452 113.846 33.0543C119.211 35.5879 121.682 39.5395 121.682 45.587C121.682 47.5206 121.301 50.0141 120.835 51.1279C119.924 53.3043 120.119 54.585 121.436 55.09C123.96 56.057 126.055 51.558 125.999 45.2972C125.918 36.3381 119.308 28.8203 110.608 27.7906C109.036 27.6051 107.751 27.3871 107.751 27.3071C107.751 27.2271 108.267 26.0241 108.899 24.6338C110.331 21.481 110.442 15.5697 109.14 11.7537C107.854 7.98354 103.321 3.1686 99.5214 1.53598C95.8 -0.0630097 90.9328 -0.454931 87.3467 0.555598ZM97.7272 5.37924C100.703 6.43557 104.369 10.3942 105.327 13.5881C106.473 17.4076 106.177 20.7952 104.413 24.0552C103.535 25.6774 95.6334 35.6099 86.8538 46.1262C74.563 60.8482 70.8561 64.9529 70.7389 63.9685C69.7625 55.7463 67.4645 50.6577 62.6936 46.1512C58.902 42.5694 54.4893 40.4666 48.9139 39.5836L44.7206 38.9198L63.4755 23.556C84.9859 5.93407 85.394 5.63375 89.0579 4.67888C92.0508 3.8991 93.9988 4.05679 97.7272 5.37924ZM53.3957 45.0264C59.4604 47.2927 64.3857 53.0799 65.7091 59.4944C68.2527 71.822 58.7853 83.4097 46.2373 83.3268C44.1534 83.3135 41.5773 83.0462 40.5127 82.7337C35.0308 81.1237 29.6847 76.0977 27.6089 70.6021C25.8571 65.9629 26.2071 59.237 28.4378 54.683C30.3958 50.6855 34.7934 46.6248 38.8503 45.067C42.9745 43.4831 49.2186 43.4657 53.3957 45.0264ZM40.857 46.412C37.6354 47.5606 35.7726 48.952 35.7726 50.2095C35.7726 52.1743 37.5088 52.5744 40.1064 51.209C43.3402 49.5092 49.1077 49.5086 52.316 51.2079C58.8944 54.6928 61.7631 62.2141 58.9792 68.6779C52.2492 84.3025 29.4258 76.9418 32.8924 60.2649C33.4705 57.4838 33.4339 56.9168 32.6248 56.1086C30.3191 53.8058 27.9642 58.5825 28.3798 64.7193C28.7089 69.5759 30.726 73.5844 34.5827 77.0485C45.651 86.9874 63.2491 79.5833 64.1169 64.623C64.4547 58.7958 63.1046 55.3839 58.7528 51.0693C56.0931 48.4325 54.4475 47.32 52.1041 46.5761C48.4141 45.4038 43.8707 45.3377 40.857 46.412ZM26.2605 77.2474C26.2245 77.2822 24.9005 77.4804 23.3187 77.6874L20.4425 78.0643L22.405 76.0421L24.3676 74.0193L25.3474 75.602C25.8861 76.4722 26.2971 77.2126 26.2605 77.2474ZM33.0508 84.0625C37.1687 86.0749 41.1356 90.4405 42.7626 94.7499C44.5963 99.6077 44.2103 106.706 41.8803 110.977C38.7783 116.663 33.4897 120.458 27.2728 121.458C15.0981 123.416 4.42735 114.246 4.42735 101.824C4.42735 93.0964 9.4188 86.0766 17.781 83.045C21.8397 81.5736 28.9237 82.0455 33.0508 84.0625ZM75.4848 83.303C77.2436 83.9599 79.9985 85.6853 81.6337 87.1538C92.4107 96.8318 89.8195 113.627 76.579 119.91C67.0999 124.409 55.1429 120.164 50.4585 110.638C49.0247 107.722 48.8332 106.683 48.8332 101.824C48.8332 97.175 49.0514 95.8735 50.2327 93.4761C52.7844 88.2988 57.0491 84.5315 62.1839 82.9186C65.8571 81.7655 71.8319 81.9377 75.4848 83.303ZM19.5195 84.3594C14.5159 86.0036 10.2645 89.6172 7.83934 94.2872C5.89594 98.0302 5.87678 105.572 7.80162 109.474C9.51458 112.948 13.0258 116.455 16.504 118.166C20.3566 120.062 27.9264 120.083 31.7326 118.209C35.1446 116.53 38.8787 112.811 40.5464 109.431C42.4556 105.56 42.4289 97.9995 40.493 94.2872C37.2261 88.0235 31.6972 84.368 25.034 84.066C22.7992 83.9651 20.3177 84.0967 19.5195 84.3594ZM63.6351 84.3594C58.5972 86.0152 54.4742 89.5546 51.9323 94.4061C50.8857 96.4039 50.6233 97.8702 50.6053 101.824C50.5856 106.077 50.7963 107.157 52.143 109.714C57.9854 120.802 72.3903 123.227 81.0492 114.579C84.9418 110.691 85.9617 108.109 85.9733 102.114C85.9814 97.8192 85.7457 96.415 84.6405 94.1742C82.9299 90.7049 79.4059 87.1816 75.9991 85.5345C73.1269 84.146 66.2675 83.4938 63.6351 84.3594ZM30.4875 89.6271C35.1573 92.0267 37.7108 96.3187 37.7439 101.824C37.7799 107.717 34.9536 112.016 29.3875 114.532C24.1598 116.896 18.9687 115.798 14.5287 111.391C11.1898 108.076 9.80075 104.172 10.4712 99.9834C11.9798 90.5599 22.1067 85.3206 30.4875 89.6271ZM47.5799 89.6491C47.014 90.6057 46.4115 91.3867 46.2408 91.3849C46.0701 91.3826 45.4856 90.5999 44.9423 89.6456L43.9532 87.9098H46.2808H48.6085L47.5799 89.6491ZM74.6861 89.6601C77.4891 91.0887 80.6788 94.8241 81.5362 97.6835C84.9133 108.941 73.5663 119.284 63.0546 114.532C57.5158 112.028 54.7197 107.767 54.7168 101.824C54.7139 95.1662 58.6384 90.0944 65.0863 88.4247C67.5771 87.7794 72.15 88.3684 74.6861 89.6601Z"/>
</mask>
<path fill-rule="evenodd" clip-rule="evenodd" d="M87.3467 0.555598C85.8612 0.974187 83.9724 1.75745 83.1487 2.29663C80.651 3.93157 32.2022 43.7904 29.2122 46.6706C24.0791 51.6149 21.099 60.3478 22.2971 66.9328L22.8259 69.8386L13.6551 78.6005C6.14554 85.7751 4.16208 88.0165 2.70859 90.9698C-0.91818 98.3392 -0.902508 106.028 2.75386 112.879C10.7783 127.916 30.2152 130.528 41.7213 118.115C43.5097 116.186 45.1408 114.079 45.3457 113.433C45.8728 111.775 46.3784 111.965 47.6339 114.294C49.0688 116.954 54.0852 121.663 57.1484 123.224C67.8191 128.661 80.7061 125.766 87.4755 116.41C90.3071 112.497 118.78 63.5754 118.78 62.6234C118.78 61.5421 117.172 60.5386 116.05 60.9195C115.454 61.1218 110.279 69.4438 103.978 80.3335C97.9118 90.8162 92.8605 99.308 92.752 99.2042C92.644 99.1004 92.3137 97.9409 92.0183 96.6272C90.5561 90.1268 85.1693 83.3488 79.1098 80.3833C75.3443 78.5408 69.5837 77.2004 67.3013 77.6364C66.1294 77.8602 66.0452 77.7697 66.6773 76.9668C72.9708 68.9741 103.527 32.9319 104.455 32.4061C106.482 31.2576 110.65 31.5452 113.846 33.0543C119.211 35.5879 121.682 39.5395 121.682 45.587C121.682 47.5206 121.301 50.0141 120.835 51.1279C119.924 53.3043 120.119 54.585 121.436 55.09C123.96 56.057 126.055 51.558 125.999 45.2972C125.918 36.3381 119.308 28.8203 110.608 27.7906C109.036 27.6051 107.751 27.3871 107.751 27.3071C107.751 27.2271 108.267 26.0241 108.899 24.6338C110.331 21.481 110.442 15.5697 109.14 11.7537C107.854 7.98354 103.321 3.1686 99.5214 1.53598C95.8 -0.0630097 90.9328 -0.454931 87.3467 0.555598ZM97.7272 5.37924C100.703 6.43557 104.369 10.3942 105.327 13.5881C106.473 17.4076 106.177 20.7952 104.413 24.0552C103.535 25.6774 95.6334 35.6099 86.8538 46.1262C74.563 60.8482 70.8561 64.9529 70.7389 63.9685C69.7625 55.7463 67.4645 50.6577 62.6936 46.1512C58.902 42.5694 54.4893 40.4666 48.9139 39.5836L44.7206 38.9198L63.4755 23.556C84.9859 5.93407 85.394 5.63375 89.0579 4.67888C92.0508 3.8991 93.9988 4.05679 97.7272 5.37924ZM53.3957 45.0264C59.4604 47.2927 64.3857 53.0799 65.7091 59.4944C68.2527 71.822 58.7853 83.4097 46.2373 83.3268C44.1534 83.3135 41.5773 83.0462 40.5127 82.7337C35.0308 81.1237 29.6847 76.0977 27.6089 70.6021C25.8571 65.9629 26.2071 59.237 28.4378 54.683C30.3958 50.6855 34.7934 46.6248 38.8503 45.067C42.9745 43.4831 49.2186 43.4657 53.3957 45.0264ZM40.857 46.412C37.6354 47.5606 35.7726 48.952 35.7726 50.2095C35.7726 52.1743 37.5088 52.5744 40.1064 51.209C43.3402 49.5092 49.1077 49.5086 52.316 51.2079C58.8944 54.6928 61.7631 62.2141 58.9792 68.6779C52.2492 84.3025 29.4258 76.9418 32.8924 60.2649C33.4705 57.4838 33.4339 56.9168 32.6248 56.1086C30.3191 53.8058 27.9642 58.5825 28.3798 64.7193C28.7089 69.5759 30.726 73.5844 34.5827 77.0485C45.651 86.9874 63.2491 79.5833 64.1169 64.623C64.4547 58.7958 63.1046 55.3839 58.7528 51.0693C56.0931 48.4325 54.4475 47.32 52.1041 46.5761C48.4141 45.4038 43.8707 45.3377 40.857 46.412ZM26.2605 77.2474C26.2245 77.2822 24.9005 77.4804 23.3187 77.6874L20.4425 78.0643L22.405 76.0421L24.3676 74.0193L25.3474 75.602C25.8861 76.4722 26.2971 77.2126 26.2605 77.2474ZM33.0508 84.0625C37.1687 86.0749 41.1356 90.4405 42.7626 94.7499C44.5963 99.6077 44.2103 106.706 41.8803 110.977C38.7783 116.663 33.4897 120.458 27.2728 121.458C15.0981 123.416 4.42735 114.246 4.42735 101.824C4.42735 93.0964 9.4188 86.0766 17.781 83.045C21.8397 81.5736 28.9237 82.0455 33.0508 84.0625ZM75.4848 83.303C77.2436 83.9599 79.9985 85.6853 81.6337 87.1538C92.4107 96.8318 89.8195 113.627 76.579 119.91C67.0999 124.409 55.1429 120.164 50.4585 110.638C49.0247 107.722 48.8332 106.683 48.8332 101.824C48.8332 97.175 49.0514 95.8735 50.2327 93.4761C52.7844 88.2988 57.0491 84.5315 62.1839 82.9186C65.8571 81.7655 71.8319 81.9377 75.4848 83.303ZM19.5195 84.3594C14.5159 86.0036 10.2645 89.6172 7.83934 94.2872C5.89594 98.0302 5.87678 105.572 7.80162 109.474C9.51458 112.948 13.0258 116.455 16.504 118.166C20.3566 120.062 27.9264 120.083 31.7326 118.209C35.1446 116.53 38.8787 112.811 40.5464 109.431C42.4556 105.56 42.4289 97.9995 40.493 94.2872C37.2261 88.0235 31.6972 84.368 25.034 84.066C22.7992 83.9651 20.3177 84.0967 19.5195 84.3594ZM63.6351 84.3594C58.5972 86.0152 54.4742 89.5546 51.9323 94.4061C50.8857 96.4039 50.6233 97.8702 50.6053 101.824C50.5856 106.077 50.7963 107.157 52.143 109.714C57.9854 120.802 72.3903 123.227 81.0492 114.579C84.9418 110.691 85.9617 108.109 85.9733 102.114C85.9814 97.8192 85.7457 96.415 84.6405 94.1742C82.9299 90.7049 79.4059 87.1816 75.9991 85.5345C73.1269 84.146 66.2675 83.4938 63.6351 84.3594ZM30.4875 89.6271C35.1573 92.0267 37.7108 96.3187 37.7439 101.824C37.7799 107.717 34.9536 112.016 29.3875 114.532C24.1598 116.896 18.9687 115.798 14.5287 111.391C11.1898 108.076 9.80075 104.172 10.4712 99.9834C11.9798 90.5599 22.1067 85.3206 30.4875 89.6271ZM47.5799 89.6491C47.014 90.6057 46.4115 91.3867 46.2408 91.3849C46.0701 91.3826 45.4856 90.5999 44.9423 89.6456L43.9532 87.9098H46.2808H48.6085L47.5799 89.6491ZM74.6861 89.6601C77.4891 91.0887 80.6788 94.8241 81.5362 97.6835C84.9133 108.941 73.5663 119.284 63.0546 114.532C57.5158 112.028 54.7197 107.767 54.7168 101.824C54.7139 95.1662 58.6384 90.0944 65.0863 88.4247C67.5771 87.7794 72.15 88.3684 74.6861 89.6601Z" fill="white" stroke="#816E6E" stroke-width="2" mask="url(#path-1-inside-1_4013_8791)"/>
</svg>
