<svg xmlns="http://www.w3.org/2000/svg" width="199" height="50" fill="none" viewBox="0 0 199 50"><mask id="a" width="199" height="50" x="0" y="0" maskUnits="userSpaceOnUse" style="mask-type:alpha"><path fill="#000" fill-rule="evenodd" d="M27.02.11c-3.5.47-6.5 1.46-9.54 3.16l-.98.54v4.5c0 3.58.02 4.57.13 4.77l12.5 21.42c.63 1.07.72 1.17.83 1a1985.1 1985.1 0 0 1 7.27-12.44l7.24-12.4 1.63-2.78.77-1.31-.33-.28A25.4 25.4 0 0 0 33.75.2a36 36 0 0 0-6.73-.1m-13.1 5.62c-.8.68-2.69 2.59-3.4 3.46a26 26 0 0 0-4.77 9.41 21 21 0 0 0-.73 6.03c-.04 2.44-.03 2.85.17 4.02a25 25 0 0 0 5.16 11.81c1.09 1.38 3.74 3.99 4.04 3.99.05 0 .09-1.85.09-4.2v-4.2l-.55-.87A18.8 18.8 0 0 1 11.2 22a20 20 0 0 1 2.76-7.34l.52-.79-.03-4.28-.02-4.28zm17.9.29c2.1.22 4.31.83 6.1 1.68.53.26.98.5.98.53s-.19.38-.42.77a6953.06 6953.06 0 0 1-8.54 14.65c-.07.12-.73-.96-3.16-5.16l-3.18-5.46-1-1.71-.03-1.95-.03-1.94.48-.22c1.15-.5 3.5-1.07 5.08-1.23a27 27 0 0 1 3.72.04m82.66.5c0 1 .33 1.21 1.95 1.21 1.07 0 1.19-.02 1.43-.23.17-.14.3-.38.34-.63.12-.7.08-.75-.64-.75-.6 0-.65.01-.68.22s-.1.23-.48.23c-.4 0-.46-.03-.5-.23-.02-.2-.08-.22-.72-.22h-.7zm-35.42.56v.66l.68-.03.68-.03.03-.63.03-.63h-1.42zm1.92 0v.66l.73-.03.73-.03.03-.63.03-.63h-1.52zM5.07 8.2c-1 1.5-1.34 2.1-2.11 3.7l-.71 1.48 1.14 1.08 1.73 1.62c.5.47.58.52.64.35a28 28 0 0 1 4.05-7.33c.3-.38.53-.7.51-.71-.09-.07-4.29-1.18-4.43-1.18-.1 0-.44.41-.82.99m87.83.12c-1.27.16-1.48.72-1.4 3.69.05 2.2.13 2.47.83 2.78.42.19.63.2 2.4.17 2.09-.03 2.34-.09 2.72-.59.25-.35.38-1.78.17-1.92a4 4 0 0 0-1.55-.03q-.15.07-.16.36c0 .64-.1.69-1.3.69q-1.06 0-1.2-.12c-.09-.09-.12-.62-.12-1.76 0-1.95-.07-1.85 1.33-1.85 1.1 0 1.27.08 1.31.65l.03.4h1.72l-.01-.75c0-.9-.2-1.37-.7-1.57-.4-.16-3.13-.27-4.07-.15m10.7 0c-.9.14-1.23.63-1.23 1.84 0 .66-.03.69-.97.69h-.65V8.34h-1.71v6.55h1.71v-1.31c0-1.72.06-1.72 1.3 0l.95 1.31h.94c.58 0 .95-.04.95-.1s-.42-.68-.95-1.39l-.94-1.28.26-.11c.5-.22.66-.5.72-1.34l.05-.77.36-.12c.35-.1.35-.11.38-.76.03-.61.01-.66-.2-.72-.26-.07-.23-.07-.97.04m-39.75.2c-.6.37-.63.56-.63 3.09 0 3.41-.09 3.32 3.07 3.32 1.17 0 2.25-.03 2.4-.07s.4-.25.55-.45l.28-.37.03-2.25c.03-2.04.02-2.28-.16-2.69-.32-.72-.53-.78-3.06-.77-1.96 0-2.18.01-2.48.2m7.04 1.6c0 2.02.08 2.33.7 2.68.28.17.58.21 1.78.25l1.44.04.03.87.03.87.88.03.89.03V8.33l-.89.03-.88.03-.03 1.53-.02 1.54h-1c-.9 0-1.02-.02-1.12-.2a7 7 0 0 1-.1-1.56V8.34h-1.71zm7.16 1.48v3.28h5.25v-1.41h-3.43v-1.21h2.32v-1.31h-2.32V9.75h3.33V8.34h-5.15zm6.36 0v3.28h1.71v-2l1.7-.03c1.84-.04 2.02-.1 2.34-.62.17-.28.2-.52.2-1.71v-1.4l-.34-.37-.35-.37-2.63-.04-2.63-.03zm21.29 0v3.28h2.09l1.08-2c.6-1.09 1.12-2.03 1.17-2.08.06-.06.1.72.1 2v2.08h1.71V8.33l-1.07.03-1.07.03-.65 1.16c-.36.63-.86 1.55-1.12 2.04l-.48.89-.05-2.05-.05-2.04-.83-.03-.83-.03zm7.61-3.15a59 59 0 0 0-.02 3.26l.03 3.12 1.06.03 1.07.03.16-.33.79-1.44.93-1.74c.17-.35.36-.63.4-.63s.08.93.08 2.06v2.07h1.72l-.03-3.25-.03-3.25h-2.12l-.57 1.04-1.08 1.96c-.27.5-.54.94-.58.95-.05.02-.07-.77-.06-1.75s0-1.9-.02-2.02c-.06-.22-.1-.23-.87-.23-.56 0-.82.03-.86.12m-64.08.9c-.07.07-.3.45-.52.84l-1.55 2.68L46 14.85l.58 1.1c1.58 3 2.2 5.53 2.2 8.93 0 3.18-.54 5.59-1.87 8.32a19 19 0 0 1-12.07 10l-.69.18v6.13l.43-.07a24.56 24.56 0 0 0 12.95-6.86 25 25 0 0 0 7.08-13.99c.14-.89.18-1.73.18-3.81 0-2.93-.12-3.9-.75-6.31a27 27 0 0 0-3.32-7.41c-.96-1.43-1.35-1.88-1.5-1.7m18.43.49c.12.07.15.4.18 1.65.02 1 0 1.64-.08 1.77-.1.2-.2.21-1.31.21-.66 0-1.27-.03-1.36-.06-.14-.05-.16-.3-.16-1.76 0-1.51.02-1.71.18-1.8a8 8 0 0 1 2.55-.01m20.86.02c.17.16.16 1.35 0 1.46-.17.1-1.82.17-2.14.1-.25-.07-.26-.1-.26-.88v-.8h1.14q1.13 0 1.26.12m104.5 9.52c-.1.28.04.97.26 1.2.19.18.35.2 1.43.24 1.71.04 2-.12 2-1.15v-.45h-.64c-.6 0-.65.02-.68.23-.03.2-.1.22-.49.22-.4 0-.46-.03-.49-.22-.02-.21-.08-.23-.68-.23-.5 0-.67.04-.71.16M3.38 20.74l-2.14.57-1.08.27-.08.56c-.1.75-.1 4.9 0 5.87l.08.77 1.58.38 2.33.56.74.18-.06-.37a31 31 0 0 1-.06-9.01c0-.12-.16-.1-1.31.22m102.22.7c-.52.1-.8.28-1.02.65-.18.29-.2.52-.2 2.62 0 3.44-.04 3.39 3.18 3.4 1.8 0 2.05-.02 2.43-.2.7-.35.75-.56.75-3.16 0-2.52-.05-2.77-.7-3.14-.3-.18-.56-.2-2.22-.23-1.03-.01-2.03.01-2.22.06m7.78 0c-.4.07-.62.17-.86.4l-.31.32-.03 2.4c-.05 3.58-.13 3.48 2.95 3.52 1.78.03 2.06.01 2.38-.15.5-.25.8-.9.8-1.7 0-.72-.03-.75-.9-.75-.82 0-.91.05-.91.5 0 .2-.06.43-.12.5-.17.16-2.22.16-2.39 0-.08-.1-.12-.62-.12-1.72 0-1.3.03-1.61.16-1.74.12-.12.38-.16 1.14-.16.53 0 1.04.04 1.12.1.07.04.17.28.2.52l.06.44h1.71v-.76c-.01-.88-.2-1.33-.67-1.57-.36-.19-3.3-.29-4.21-.15m20.93 0c-.41.03-.82.13-.97.24-.5.33-.54.57-.58 2.91-.03 2.01-.02 2.22.17 2.64.35.8.43.83 3.04.83 3.28 0 3.16.1 3.21-3.15.05-3.4 0-3.47-2.65-3.52-.84-.01-1.84 0-2.22.04m-71.1 3.28V28h1.72l.02-1.94.03-1.94.72 1.92.72 1.91h1.48l.71-1.9.71-1.89.05 1.9.05 1.9.83.02.84.03v-6.56h-2.31l-.3.78-.77 2.12a9 9 0 0 1-.55 1.33c-.03 0-.4-.94-.82-2.09l-.77-2.1-1.17-.02-1.18-.03zm10.91-3.04-1.26 3.15a62 62 0 0 0-1.17 3.05c0 .09.24.12.85.12h.84l.2-.52.2-.53 1.35-.03 1.36-.03.2.53.2.53.83.03c.75.03.83.01.83-.15 0-.2-2.29-6.05-2.45-6.26q-.1-.12-1-.12c-.83 0-.9.01-.98.23m5.1-.16c-.03.03-.06 1.5-.06 3.27v3.22l4.31-.03 4.32-.03.03-3.02c.01-1.67 0-3.13-.03-3.25-.05-.22-.1-.23-.91-.23h-.86v5.04h-1.61l-.03-2.5-.02-2.5-.89-.02-.88-.03v5.05h-1.66l.02-2.3c.02-1.26 0-2.39-.02-2.51-.06-.22-.11-.23-.85-.23-.43 0-.82.03-.85.07m10.03 3.2V28h2.09l.71-1.28 1.15-2.1.44-.8.03 2.1.02 2.08h1.72v-6.55H93.3l-.98 1.79c-1.53 2.78-1.35 2.74-1.35.3v-2.1h-1.72zm7.67 0V28h1.71v-2.42h2.53v1.05c0 .58.03 1.13.06 1.22.05.12.23.15.9.15h.85v-6.55h-.84c-.68 0-.86.03-.91.16-.03.09-.06.65-.06 1.26v1.1h-2.53v-2.52h-1.71zm21.97-3.2c-.12.11-.08 1.3.05 1.42q.14.12 1.1.12h1V28h1.71v-4.94h.99c.54 0 1.04-.04 1.11-.08q.14-.07.1-.78l-.03-.7-2.98-.03c-1.64-.01-3.02 0-3.05.04m6.79 3.2V28h1.71v-2l1.7-.03c1.43-.03 1.74-.06 1.97-.22.49-.31.6-.74.55-2.24-.05-2.06-.06-2.06-3.5-2.06h-2.43zm14.93 0V28h2.1l.83-1.53a25 25 0 0 1 1.42-2.55c.05-.05.1.8.1 2V28h1.71v-6.56l-1.08.03-1.07.03-1.12 2.05-1.12 2.06-.05-2.06-.05-2.05-.84-.03-.83-.03zm6.93-3.2a3 3 0 0 0-.06.74c0 .53.03.7.15.74.1.03.6.06 1.11.06h.95V28h1.72v-4.94h1.05c1.18 0 1.17.01 1.17-.8 0-.88.24-.81-3.07-.81-1.62 0-2.98.03-3.02.07m6.76.09c-.1.24-.07 6.12.02 6.27.06.1.66.12 2.65.1l2.56-.03v-1.31l-1.74-.02-1.74-.03v-1.2l1.19-.03 1.18-.03v-1.2l-1.18-.04-1.19-.03v-1.2h3.44l-.03-.68-.03-.68-2.53-.03c-2.25-.02-2.55 0-2.6.14m6.7 2.16c0 1.42-.04 2.4-.1 2.53-.08.14-.22.2-.51.2h-.4v1.63l.86-.04c.96-.05 1.26-.2 1.6-.8.19-.3.22-.58.26-2.31l.05-1.97.99-.03.98-.03v5.06l.88-.03.89-.03.02-3.02c.02-1.67 0-3.13-.02-3.25l-.06-.23H161zm6.96.96v3.28l2.56-.03c2.54-.03 2.57-.03 2.82-.26.6-.57.63-2.97.04-3.53-.33-.3-.97-.42-2.42-.42h-1.29v-2.32h-1.71zm6.86 0V28l.88-.03.89-.03.03-1.18.02-1.19h2.52v2.43l.88-.03.89-.03V21.5l-.89-.03-.88-.03v2.53h-2.52l-.02-1.24-.03-1.23-.89-.03-.88-.03zm7.57 0V28h2.3c2.23 0 2.32 0 2.65-.22.46-.32.62-.88.57-2.04-.04-1-.17-1.39-.6-1.7-.26-.2-.47-.22-1.75-.26l-1.46-.03v-2.3h-1.71zm6.26 0V28h1.71v-6.55h-1.71zm3.17-3.15c-.03.07-.04 1.53-.02 3.25l.02 3.12 1.06.03 1.06.03 1.1-2.02c.6-1.1 1.13-2.04 1.18-2.07.06-.04.1.73.1 2.01V28h1.71l-.02-3.25-.03-3.25-1.02-.03c-.74-.02-1.05 0-1.12.1-.06.07-.57.98-1.14 2.02a18 18 0 0 1-1.11 1.9c-.05 0-.09-.86-.09-1.9v-2.02c-.01-.17-1.61-.17-1.68 0m-82.89 1.48c.13.2.13 3.1 0 3.34-.1.17-.23.2-1.35.2q-1.24 0-1.36-.13c-.08-.08-.12-.6-.12-1.7 0-2.03-.07-1.94 1.54-1.9.92.03 1.22.07 1.29.2m20.86-.08c.15.14.17 1.18.03 1.4-.08.11-.33.14-1.24.14h-1.14l-.02-.83-.03-.83h1.14q1.14 0 1.26.12m7.47 0c.09.09.12.63.12 1.8 0 1.45-.02 1.7-.16 1.75-.3.12-2.41.07-2.54-.06-.09-.08-.12-.62-.12-1.76 0-1.45.02-1.65.18-1.74a7 7 0 0 1 2.52.01m-61.75 1.24.37.99c.07.15 0 .17-.74.17h-.8l.35-.93c.37-.98.43-1.12.49-1.06.02.02.17.4.33.83m-55.99 12.1v11.33l.87.37c1.38.58 4.41 1.46 5.06 1.47.1 0 .13-1.5.13-7.2v-7.2l-.63-1.05-2.96-5.06c-1.27-2.2-2.35-4-2.4-4-.03 0-.07 5.1-.07 11.34m20.52-11.23c-.06.08-.75 1.23-1.52 2.56l-2.89 4.95-1.48 2.53v3.25c0 1.78.02 3.24.05 3.24.02 0 .52-.15 1.1-.34 1.8-.6 4.76-2.19 4.86-2.63.03-.11.04-3.24.03-6.95-.03-5.15-.06-6.72-.15-6.61m131.8.15c.12.05.16.2.16.65 0 .75-.09.8-1.36.8h-.97v-1.51h1c.56 0 1.08.03 1.17.06m14.12 0c.12.05.16.2.16.65 0 .75-.12.82-1.18.78l-.78-.03-.03-.73-.03-.73h.85c.47 0 .93.03 1.01.06M4.14 35.25a30 30 0 0 0-1.65 1.71c-.04.13 1.1 2.43 1.7 3.4.95 1.57 1.84 2.78 2 2.73l4.45-1.33c.02-.02-.1-.19-.27-.37-.5-.53-1.56-1.98-2.17-2.96a35 35 0 0 1-2.1-4.15 3 3 0 0 0-.3-.62c-.03 0-.78.72-1.66 1.6m81.78-.7c-.78.08-1.05.21-1.29.65-.15.28-.17.62-.17 2.7 0 3.4-.13 3.27 3.18 3.27h2.28l.36-.28c.53-.4.61-.89.57-3.35-.04-2.23-.1-2.44-.66-2.79-.3-.19-.53-.21-1.98-.24-.9-.02-1.93 0-2.29.04m-22.12.17c-.4.22-.58.64-.58 1.4v.66h1.71v-.33c0-.5.14-.58 1.07-.58 1.13 0 1.15.02 1.15.66 0 .63-.03.65-1.02.65h-.7v1.31l.94.03.93.03v1.2l-1.18.03c-1.3.04-1.2.08-1.31-.63-.03-.18-.12-.2-.87-.23l-.85-.03.04.81c.06 1.37.36 1.51 3.01 1.52 1.84 0 2.27-.08 2.63-.46.23-.24.25-.36.28-1.42l.04-1.16-.34-.32-.34-.32.23-.23c.2-.2.23-.32.23-1.14 0-.91 0-.93-.35-1.27l-.34-.34h-2.05c-1.62 0-2.11.04-2.33.16m8.15.13c-.09.17-.43 1-.76 1.85l-1.1 2.8a10 10 0 0 0-.52 1.44c0 .17.08.18.84.16l.83-.03.2-.53.2-.53 1.35.02 1.35.03.2.53.2.53h.85c.59 0 .84-.04.84-.12 0-.12-.57-1.61-1.86-4.82l-.63-1.57-.92-.03-.91-.03zm5.09 2.98v3.29h2.68c2.96 0 3.13-.03 3.43-.62.13-.24.16-.55.13-1.37-.03-1.05-.04-1.06-.36-1.35-.18-.16-.42-.3-.52-.3q-.42 0-.11-.3c.43-.42.37-1.72-.1-2.25l-.29-.32-2.43-.03-2.43-.03zm15.71-3.2c-.04.03-.07 1.12-.07 2.4 0 2.63.02 2.57-.74 2.67l-.42.06v2.62l.6.03c1 .05 1.07.01 1.07-.69v-.6h4.13v.54c0 .7.11.79.98.75l.69-.03.03-1.34.02-1.33h-.91l-.02-2.55-.03-2.55-2.63-.02a28 28 0 0 0-2.7.04M80.76 36.1c.12.3.05.9-.1 1-.08.04-.54.08-1.02.08h-.88v-1.31h.96c.9 0 .96.02 1.04.23m8.1-.02c.17.1.19.22.19 1.74 0 1.14-.04 1.68-.12 1.76-.17.17-2.42.17-2.59 0-.08-.08-.12-.61-.12-1.76 0-1.45.02-1.65.18-1.74a8 8 0 0 1 2.45 0m7.45 1.76v1.87h-2.2l.2-.38c.16-.32.19-.6.19-1.86v-1.5h1.81zm-22.87-.3.34.9-.75.03c-.42.02-.77.02-.8 0 0-.02.14-.48.34-1.02s.4-.94.44-.9.23.49.43.99m8.02.98c.13.12.17.85.06 1.13-.05.13-.27.16-1.41.16h-1.35v-1.42h1.29q1.3 0 1.41.13" clip-rule="evenodd"/></mask><g mask="url(#a)"><path fill="#da413b" d="M-5.09 3.73H15.6v44.69H-5.09zM48.59 3.73h20.68l1.26 14.93 1.57 2.47-.81 8.02-2.02 4.39v14.88H48.6z"/><path fill="#171717" d="M15.09-5.55h40.67v60.42H15.09zM70.18-5.55h51.77v24.51H70.18z"/><path fill="#171717" d="M71.59 18.05h129.26v11.4H71.59zM69.38 31.67h32.09v11.4H69.38z"/></g></svg>