<svg xmlns="http://www.w3.org/2000/svg" width="50" height="50" fill="none" viewBox="0 0 50 50"><path fill="#fff" fill-rule="evenodd" d="M26.06.11a6 6 0 0 0-3.76 3.17c-.38.78-.7 2-.7 2.73q.01.99.77 1c.49 0 .77-.35.77-.96 0-.59.3-1.67.6-2.2.33-.57.89-1.19 1.36-1.52a4 4 0 0 1 4.53 0 4.8 4.8 0 0 1 1.96 3.63c0 .43.2.9.41.99q.57.22 1.02-.27c.16-.18.53-.46.8-.61.47-.25.6-.28 1.42-.28.8 0 .95.03 1.35.26q.94.54 1.4 1.6l.26.58v3.44q0 3.46.1 3.68c.06.13.24.32.4.41.29.17.32.17.62.01.19-.1.34-.25.37-.39.03-.12.04-1.9.03-3.94l-.03-3.71-.38-.83a4.7 4.7 0 0 0-2.5-2.53c-.46-.2-.7-.24-1.67-.24-1 0-1.18.03-1.68.25l-.55.26-.06-.25a8 8 0 0 0-.8-1.78A6.5 6.5 0 0 0 29.2.27 7 7 0 0 0 26.07.1M16.01 4.48c-.27.29-.28.31-.22.97a5.3 5.3 0 0 0 2.82 4.36c.42.2.57.32.61.52a4.68 4.68 0 0 0 3.36 3.23c.73.15 1.82.07 2.42-.19l.46-.2.21.27a6 6 0 0 0 1.65 1.37c1.51.83 3.42.8 4.81-.06 1.67-1.03 2.58-2.52 2.89-4.73.12-.88.04-1.13-.46-1.35-.26-.12-.33-.11-.61.06-.35.2-.38.29-.54 1.44-.35 2.54-2.66 4.16-4.85 3.4a4 4 0 0 1-2.01-1.64c-.47-.73-.82-.88-1.3-.57-.7.46-1 .57-1.6.6-1.46.1-2.64-.87-3.08-2.54-.16-.61-.3-.76-.94-.96-1.26-.38-2.21-1.7-2.32-3.17-.04-.5-.1-.68-.27-.87-.32-.34-.69-.32-1.03.06m16.81 13.24c-.08.1-.07 5.33.02 5.48.06.1 1.34.12 6.14.1l6.07-.03v-5.56l-6.08-.03c-3.35-.01-6.11 0-6.15.04M5.68 33.87v13.97H.45l-.22.24a.8.8 0 0 0 .05 1.17l.28.25h24.12c21.33 0 24.14-.02 24.37-.15.5-.27.6-.83.23-1.25l-.22-.26h-5.5V24.69H34.3v23.15h-1.35V33.2l-.6-.6c-.62-.62-1.38-1.41-3.27-3.37L27 27.09l-6.38-6.58-.59-.6-.04 7.1-.05 7.1-1.3-1.3-9.9-9.92a90 90 0 0 0-3.02-2.99c-.02 0-.04 6.29-.04 13.97m3.98-3.38c.14.2.15.8.15 8.78v8.57H8.48V39.3c0-7.67.01-8.54.14-8.75.28-.42.76-.46 1.05-.07m14.23-.02c.13.2.14 1.2.14 8.8v8.57h-1.25v-8.61c0-9.64-.05-8.97.63-8.97.25 0 .38.05.48.21" clip-rule="evenodd"/></svg>