<?xml version="1.0" encoding="UTF-8"?>
<svg version="1.1" xmlns="http://www.w3.org/2000/svg" width="94" height="127">
<path d="M0 0 C1.07765625 0.01804688 2.1553125 0.03609375 3.265625 0.0546875 C4.49539062 0.08949219 4.49539062 0.08949219 5.75 0.125 C5.60953745 3.08367918 5.46287776 6.04182264 5.3125 9 C5.27318359 9.84175781 5.23386719 10.68351563 5.19335938 11.55078125 C5.15146484 12.35644531 5.10957031 13.16210938 5.06640625 13.9921875 C5.02974854 14.73581543 4.99309082 15.47944336 4.95532227 16.24560547 C4.75 18.125 4.75 18.125 3.75 20.125 C4.51570313 20.20621094 5.28140625 20.28742187 6.0703125 20.37109375 C11.15306492 21.41246447 15.80433008 23.29646485 20.625 25.1875 C21.59953125 25.56455078 22.5740625 25.94160156 23.578125 26.33007812 C25.97077549 27.25664376 28.36126054 28.18840791 30.75 29.125 C30.75 28.465 30.75 27.805 30.75 27.125 C33.5625 26.8125 33.5625 26.8125 36.75 27.125 C37.11738281 27.87394531 37.48476563 28.62289063 37.86328125 29.39453125 C40.71330616 33.51910145 44.52366801 34.44748389 49.125 36.125 C50.01735352 36.4653125 50.90970703 36.805625 51.82910156 37.15625 C53.6233301 37.8390267 55.42019612 38.51491577 57.21972656 39.18359375 C60.65994665 40.46355213 64.07856438 41.79570051 67.5 43.125 C69.24944232 43.79312873 70.99919149 44.46045954 72.75 45.125 C72.42 47.105 72.09 49.085 71.75 51.125 C70.43 51.455 69.11 51.785 67.75 52.125 C67.37875 53.795625 67.37875 53.795625 67 55.5 C66.5875 56.69625 66.175 57.8925 65.75 59.125 C65.12262939 59.40867432 64.49525879 59.69234863 63.84887695 59.98461914 C59.08880099 62.57090678 57.79090798 69.69015745 55.9375 74.5625 C55.68543793 75.21350677 55.43337585 75.86451355 55.17367554 76.5352478 C50.92481049 87.67359798 49.47104422 97.31853875 51.75 109.125 C56.04 109.125 60.33 109.125 64.75 109.125 C64.75 111.105 64.75 113.085 64.75 115.125 C67.06 115.125 69.37 115.125 71.75 115.125 C71.75 119.085 71.75 123.045 71.75 127.125 C46.67 127.125 21.59 127.125 -4.25 127.125 C-4.25 123.165 -4.25 119.205 -4.25 115.125 C-1.94 115.125 0.37 115.125 2.75 115.125 C2.75 113.145 2.75 111.165 2.75 109.125 C7.04 109.125 11.33 109.125 15.75 109.125 C15.85376953 108.10841309 15.95753906 107.09182617 16.06445312 106.04443359 C17.33465698 93.95246919 18.99113111 81.93131392 20.78173828 69.90625 C21.25641374 66.7067691 21.72010756 63.50580621 22.18359375 60.3046875 C22.48631612 58.25771433 22.78967719 56.2108355 23.09375 54.1640625 C23.29852966 52.73762924 23.29852966 52.73762924 23.50744629 51.28237915 C23.70775452 49.958517 23.70775452 49.958517 23.91210938 48.60791016 C24.02598999 47.83613434 24.13987061 47.06435852 24.25720215 46.26919556 C24.78932258 43.95390491 25.52585621 42.15907505 26.75 40.125 C27.41 39.795 28.07 39.465 28.75 39.125 C28.75 38.465 28.75 37.805 28.75 37.125 C28.20214844 36.97804687 27.65429688 36.83109375 27.08984375 36.6796875 C20.81457772 34.90424638 14.84373426 32.63628099 8.84155273 30.10693359 C5.96866232 28.91574428 3.89485045 28.125 0.75 28.125 C-1.11242133 30.42443043 -2.78504905 32.68286137 -4.4375 35.125 C-4.90091797 35.79273438 -5.36433594 36.46046875 -5.84179688 37.1484375 C-6.98685497 38.80109867 -8.11960265 40.46227669 -9.25 42.125 C-12.71664733 41.38163737 -14.10866328 40.58312631 -16.375 37.8125 C-16.87257813 37.21824219 -17.37015625 36.62398437 -17.8828125 36.01171875 C-22.35785478 29.8361604 -21.90758228 23.54985309 -21.25 16.125 C-19.40237023 9.08851777 -14.39731038 4.7480852 -8.421875 0.96875 C-5.53012552 -0.15466347 -3.09101739 -0.06719603 0 0 Z M-14.625 9.5625 C-18.38371597 14.39367569 -19.77027927 18.51738888 -19.63671875 24.640625 C-18.92377225 29.22076617 -16.94505129 33.37320492 -14.25 37.125 C-12.93806629 37.83285038 -11.60604004 38.50582504 -10.25 39.125 C-8.43565366 36.66801039 -6.62345469 34.20948741 -4.8125 31.75 C-4.29623047 31.05132813 -3.77996094 30.35265625 -3.24804688 29.6328125 C-2.50844727 28.62734375 -2.50844727 28.62734375 -1.75390625 27.6015625 C-1.29830322 26.98361816 -0.8427002 26.36567383 -0.37329102 25.72900391 C4.09616391 19.34684376 2.89305437 9.59561699 2.75 2.125 C-4.4717908 1.40282092 -9.88150113 4.26366468 -14.625 9.5625 Z M3.75 22.125 C3.42 23.115 3.09 24.105 2.75 25.125 C6.70365973 26.65818781 10.66360053 28.17443425 14.625 29.6875 C15.75292969 30.12513672 16.88085938 30.56277344 18.04296875 31.01367188 C19.11933594 31.42294922 20.19570313 31.83222656 21.3046875 32.25390625 C22.29968262 32.63619385 23.29467773 33.01848145 24.31982422 33.41235352 C26.73009373 34.41863355 26.73009373 34.41863355 28.75 33.125 C28.75 32.465 28.75 31.805 28.75 31.125 C24.77182489 29.6223608 20.79229973 28.12333048 16.8125 26.625 C15.10803711 25.98111328 15.10803711 25.98111328 13.36914062 25.32421875 C12.28955078 24.91816406 11.20996094 24.51210938 10.09765625 24.09375 C9.09742432 23.71669922 8.09719238 23.33964844 7.06665039 22.95117188 C5.00294366 22.06901625 5.00294366 22.06901625 3.75 22.125 Z M33.75 34.125 C34.75 36.125 34.75 36.125 34.75 36.125 Z M39.75 36.125 C39.75 37.115 39.75 38.105 39.75 39.125 C43.53795106 40.5554204 47.32825448 41.9793979 51.12084961 43.39746094 C52.41057458 43.88072265 53.69964438 44.36573669 54.98803711 44.85253906 C56.84054958 45.55213915 58.69563569 46.24491233 60.55078125 46.9375 C61.66622314 47.35644531 62.78166504 47.77539062 63.9309082 48.20703125 C66.73129882 49.27981207 66.73129882 49.27981207 69.75 49.125 C69.42 48.135 69.09 47.145 68.75 46.125 C66.10012117 44.76460668 66.10012117 44.76460668 62.81640625 43.64453125 C61.0075293 42.98227539 61.0075293 42.98227539 59.16210938 42.30664062 C58.53071045 42.08210205 57.89931152 41.85756348 57.2487793 41.6262207 C55.31968063 40.9400541 53.39687067 40.23827016 51.47460938 39.53320312 C45.75339305 37.14716093 45.75339305 37.14716093 39.75 36.125 Z M32.75 41.125 C32.75 44.095 32.75 47.065 32.75 50.125 C33.41 50.125 34.07 50.125 34.75 50.125 C36.2283226 47.16835481 35.81032783 44.38270263 35.75 41.125 C34.76 41.125 33.77 41.125 32.75 41.125 Z M37.75 42.125 C37.50846344 50.63844491 38.18581963 58.70379388 39.5 67.109375 C39.67756836 68.29098206 39.85513672 69.47258911 40.03808594 70.69000244 C40.60048127 74.41963978 41.17502105 78.14728412 41.75 81.875 C42.13622507 84.42175253 42.52164932 86.96862665 42.90625 89.515625 C43.84491946 95.72018476 44.79353461 101.92316002 45.75 108.125 C47.07 108.455 48.39 108.785 49.75 109.125 C48.61848517 101.12648949 47.48018054 93.12898706 46.33326149 85.13267231 C45.80087928 81.41939681 45.2708176 77.70582116 44.74609375 73.99145508 C44.2393602 70.4050582 43.72648609 66.81958792 43.20939255 63.23467064 C43.0134551 61.8686954 42.81970999 60.50240378 42.62822342 59.1357975 C42.35907769 57.21771211 42.08132031 55.30084114 41.80322266 53.3840332 C41.64777985 52.29371292 41.49233704 51.20339264 41.33218384 50.08003235 C40.76936264 47.22328035 39.92661527 44.78110009 38.75 42.125 C38.42 42.125 38.09 42.125 37.75 42.125 Z M27.75 43.125 C27.34758316 45.73436375 26.94523835 48.34373855 26.54296875 50.953125 C26.41772324 51.7655365 26.29247772 52.577948 26.16343689 53.41497803 C25.0650074 60.54249713 23.97082919 67.67066552 22.87738037 74.7989502 C22.15437093 79.5079179 21.42422538 84.21563915 20.68359375 88.921875 C20.41403818 90.65624622 20.14450384 92.39062074 19.875 94.125 C19.75535889 94.86782227 19.63571777 95.61064453 19.51245117 96.37597656 C18.8485196 100.69178735 18.64804464 104.77490484 18.75 109.125 C19.74 109.125 20.73 109.125 21.75 109.125 C22.90057336 101.49522571 24.03851613 93.86364207 25.16796875 86.23071289 C25.55312753 83.63783821 25.94110599 81.04538068 26.33203125 78.45336914 C26.89556602 74.71348217 27.44872259 70.97217975 28 67.23046875 C28.26248535 65.51104317 28.26248535 65.51104317 28.53027344 63.75688171 C29.53932397 56.82489365 29.97147175 50.12843995 29.75 43.125 C29.09 43.125 28.43 43.125 27.75 43.125 Z M42.75 43.125 C43.18567314 51.22251115 44.08204561 59.21978643 45.1875 67.25 C45.30971924 68.17449951 45.43193848 69.09899902 45.55786133 70.05151367 C45.68185303 70.92396729 45.80584473 71.7964209 45.93359375 72.6953125 C46.04243896 73.47664551 46.15128418 74.25797852 46.26342773 75.06298828 C46.69214133 77.41605989 46.69214133 77.41605989 48.75 80.125 C51.39 72.865 54.03 65.605 56.75 58.125 C55.76 57.795 54.77 57.465 53.75 57.125 C54.74 53.825 55.73 50.525 56.75 47.125 C54.98141309 46.45239649 53.21003984 45.78711605 51.4375 45.125 C50.45136719 44.75375 49.46523437 44.3825 48.44921875 44 C45.74728344 42.97081498 45.74728344 42.97081498 42.75 43.125 Z M58.75 49.125 C58.09 51.105 57.43 53.085 56.75 55.125 C59.39738916 56.5856285 60.64448334 57.125 63.75 57.125 C64.41 55.145 65.07 53.165 65.75 51.125 C63.10261084 49.6643715 61.85551666 49.125 58.75 49.125 Z M34.75 54.125 C34.75 55.445 34.75 56.765 34.75 58.125 C35.08 56.805 35.41 55.485 35.75 54.125 C35.42 54.125 35.09 54.125 34.75 54.125 Z M30.75 58.125 C32.14332574 61.49220387 33.7289286 63.1109524 36.75 65.125 C35.35667426 61.75779613 33.7710714 60.1390476 30.75 58.125 Z M30.75 64.125 C30.42 64.785 30.09 65.445 29.75 66.125 C30.74 65.795 31.73 65.465 32.75 65.125 C32.09 64.795 31.43 64.465 30.75 64.125 Z M36.75 65.125 C36.75 66.115 36.75 67.105 36.75 68.125 C34.44 68.125 32.13 68.125 29.75 68.125 C29.75 68.785 29.75 69.445 29.75 70.125 C32.39 70.125 35.03 70.125 37.75 70.125 C37.75 68.475 37.75 66.825 37.75 65.125 C37.42 65.125 37.09 65.125 36.75 65.125 Z M28.75 72.125 C28.75 74.105 28.75 76.085 28.75 78.125 C30.43762851 76.4795622 32.1040349 74.81211423 33.75 73.125 C33.75 72.795 33.75 72.465 33.75 72.125 C32.1 72.125 30.45 72.125 28.75 72.125 Z M36.75 72.125 C31.8 79.055 31.8 79.055 26.75 86.125 C27.08 86.785 27.41 87.445 27.75 88.125 C31.38 83.175 35.01 78.225 38.75 73.125 C38.09 72.795 37.43 72.465 36.75 72.125 Z M37.75 78.125 C36.31197818 79.7160643 34.94674665 81.3736015 33.625 83.0625 C32.90054688 83.97902344 32.17609375 84.89554687 31.4296875 85.83984375 C29.65129017 87.78661306 29.65129017 87.78661306 29.75 89.125 C33.38 89.125 37.01 89.125 40.75 89.125 C40.42 85.495 40.09 81.865 39.75 78.125 C39.09 78.125 38.43 78.125 37.75 78.125 Z M26.75 91.125 C26.42 92.445 26.09 93.765 25.75 95.125 C31.36 99.415 36.97 103.705 42.75 108.125 C42.75 107.135 42.75 106.145 42.75 105.125 C40.63973727 103.31410695 38.56206501 101.68077347 36.3125 100.0625 C29.86441909 95.35383817 29.86441909 95.35383817 28.75 93.125 C33.04 93.125 37.33 93.125 41.75 93.125 C41.42 92.465 41.09 91.805 40.75 91.125 C36.13 91.125 31.51 91.125 26.75 91.125 Z M33.75 95.125 C36.55804268 98.08904505 38.93315774 100.56999019 42.75 102.125 C42.42 99.815 42.09 97.505 41.75 95.125 C39.11 95.125 36.47 95.125 33.75 95.125 Z M25.75 98.125 C25.42 99.383125 25.09 100.64125 24.75 101.9375 C24.564375 102.64519531 24.37875 103.35289063 24.1875 104.08203125 C23.6452993 106.26570009 23.6452993 106.26570009 23.75 109.125 C29.03 109.125 34.31 109.125 39.75 109.125 C36.30687411 105.68187411 33.86379744 103.33236254 29.9375 100.8125 C29.14730469 100.30074219 28.35710938 99.78898437 27.54296875 99.26171875 C26.95128906 98.88660156 26.35960937 98.51148437 25.75 98.125 Z M4.75 111.125 C4.75 112.445 4.75 113.765 4.75 115.125 C23.89 115.125 43.03 115.125 62.75 115.125 C62.75 113.805 62.75 112.485 62.75 111.125 C43.61 111.125 24.47 111.125 4.75 111.125 Z M-1.25 118.125 C-1.25 120.435 -1.25 122.745 -1.25 125.125 C21.85 125.125 44.95 125.125 68.75 125.125 C68.75 122.815 68.75 120.505 68.75 118.125 C45.65 118.125 22.55 118.125 -1.25 118.125 Z " fill="#FFFFFF" transform="translate(21.25,-0.125)"/>
<path d="M0 0 C-0.61461216 12.71611375 -3.38565938 19.8197309 -11 30 C-13.37494301 29.0500228 -14.74877775 28.36083196 -16.2265625 26.23828125 C-17.9880533 21.14063363 -17.90007891 14.98589052 -16.34765625 9.8359375 C-12.77227203 2.86930903 -7.62443429 -0.35437511 0 0 Z M-6 3 C-5.67 4.32 -5.34 5.64 -5 7 C-4.34 7 -3.68 7 -3 7 C-3 5.68 -3 4.36 -3 3 C-3.99 3 -4.98 3 -6 3 Z M-12 8 C-13.485 11.465 -13.485 11.465 -15 15 C-12.36 15 -9.72 15 -7 15 C-7.61277612 12.03824877 -8.25372522 10.61941217 -10 8 C-10.66 8 -11.32 8 -12 8 Z M-14 21 C-13.67 22.65 -13.34 24.3 -13 26 C-12.34 26 -11.68 26 -11 26 C-8.60179695 23.36315253 -8.60179695 23.36315253 -8 20 C-11.7763932 19.7018576 -11.7763932 19.7018576 -14 21 Z " fill="#FFFFFF" transform="translate(22,5)"/>
</svg>
